<svg width="38" height="36" viewBox="0 0 38 36" fill="none" xmlns="http://www.w3.org/2000/svg">
<g id="Bus 6" clip-path="url(#clip0_183_6827)">
<path id="Vector" d="M34.8333 12V7.8435C34.8333 4.8465 32.7259 2.181 29.7097 1.362C26.3768 0.4575 22.7747 0 19 0C15.2253 0 11.6233 0.459 8.29033 1.362C5.2725 2.181 3.16667 4.8465 3.16667 7.8435V12C1.42025 12 0 13.3455 0 15V18C0 19.6545 1.42025 21 3.16667 21V24.75C3.16667 27.0855 4.42542 29.148 6.33333 30.36V32.25C6.33333 34.317 8.10983 36 10.2917 36C12.4735 36 14.25 34.317 14.25 32.25V31.5H23.75V32.25C23.75 34.317 25.5265 36 27.7083 36C29.8902 36 31.6667 34.317 31.6667 32.25V30.36C33.5746 29.148 34.8333 27.0855 34.8333 24.75V21C36.5798 21 38 19.6545 38 18V15C38 13.3455 36.5798 12 34.8333 12ZM19.7917 19.5V9H33.25V19.5H19.7917ZM4.75 19.5V9H18.2083V19.5H4.75ZM8.72733 2.8035C11.9178 1.938 15.3742 1.5 19 1.5C22.6258 1.5 26.0823 1.938 29.2727 2.8035C31.4988 3.408 33.0853 5.3115 33.2357 7.5H4.76267C4.91467 5.3115 6.50275 3.408 8.72733 2.8035ZM1.58333 18V15C1.58333 14.1735 2.29425 13.5 3.16667 13.5V19.5C2.29425 19.5 1.58333 18.8265 1.58333 18ZM12.6667 32.25C12.6667 33.4905 11.6011 34.5 10.2917 34.5C8.98225 34.5 7.91667 33.4905 7.91667 32.25V31.1145C8.65925 31.3635 9.45883 31.5 10.2917 31.5H12.6667V32.25ZM30.0833 32.25C30.0833 33.4905 29.0178 34.5 27.7083 34.5C26.3989 34.5 25.3333 33.4905 25.3333 32.25V31.5H27.7083C28.5412 31.5 29.3408 31.3635 30.0833 31.1145V32.25ZM33.25 24.75C33.25 27.645 30.7642 30 27.7083 30H10.2917C7.23583 30 4.75 27.645 4.75 24.75V21H9.5V23.25C9.5 23.664 9.85467 24 10.2917 24C10.7287 24 11.0833 23.664 11.0833 23.25V21H26.9167V23.25C26.9167 23.664 27.2713 24 27.7083 24C28.1453 24 28.5 23.664 28.5 23.25V21H33.25V24.75ZM36.4167 18C36.4167 18.8265 35.7057 19.5 34.8333 19.5V13.5C35.7057 13.5 36.4167 14.1735 36.4167 15V18Z" fill="black"/>
</g>
<defs>
<clipPath id="clip0_183_6827">
<rect width="38" height="36" fill="white"/>
</clipPath>
</defs>
</svg>
