<svg width="12" height="12" viewBox="0 0 12 12" fill="none" xmlns="http://www.w3.org/2000/svg">
<g clip-path="url(#clip0_182_4032)">
<path d="M4.04567 4.04567V5.66106H5.66106V4.04567H4.04567ZM6.35337 4.04567V5.66106H7.96875V4.04567H6.35337ZM8.66106 4.04567V5.66106H10.2764V4.04567H8.66106ZM8.66106 6.35337V7.96875H10.2764V6.35337H8.66106ZM6.35337 6.35337V7.96875H7.96875V6.35337H6.35337ZM6.35337 8.66106V10.2764H7.96875V8.66106H6.35337ZM4.04567 8.66106V10.2764H5.66106V8.66106H4.04567ZM4.04567 6.35337V7.96875H5.66106V6.35337H4.04567ZM1.73798 8.66106V10.2764H3.35337V8.66106H1.73798ZM1.73798 6.35337V7.96875H3.35337V6.35337H1.73798ZM3.69231 1.78125V0.295673C3.69231 0.21875 3.66947 0.15024 3.6238 0.0901442C3.57812 0.0300481 3.52404 0 3.46154 0H3C2.9375 0 2.88341 0.0300481 2.83774 0.0901442C2.79207 0.15024 2.76923 0.21875 2.76923 0.295673V1.78125C2.76923 1.86298 2.79207 1.93149 2.83774 1.98678C2.88341 2.04207 2.9375 2.07212 3 2.07692H3.46154C3.52885 2.07212 3.58413 2.04207 3.6274 1.98678C3.67067 1.93149 3.69231 1.86298 3.69231 1.78125ZM0.923077 12H11.0769C11.3269 12 11.5409 11.9135 11.7188 11.7404C11.8966 11.5673 11.9904 11.3558 12 11.1058V1.81731C12 1.57212 11.9087 1.36178 11.726 1.1863C11.5433 1.01082 11.3269 0.923077 11.0769 0.923077H9.69231V1.61538C9.69231 1.91827 9.64183 2.14784 9.54087 2.30409C9.4399 2.46034 9.25962 2.53846 9 2.53846H8.53846C8.07692 2.53365 7.84615 2.22837 7.84615 1.6226V0.923077H4.15385V1.6226C4.15385 2.22837 3.92308 2.53365 3.46154 2.53846H3C2.74038 2.53846 2.5601 2.46034 2.45913 2.30409C2.35817 2.14784 2.30769 1.91827 2.30769 1.61538V0.923077H0.923077C0.673077 0.923077 0.456731 1.01082 0.274038 1.1863C0.0913462 1.36178 0 1.57212 0 1.81731V11.1058C0 11.351 0.0901442 11.5601 0.270433 11.7332C0.450721 11.9062 0.668269 11.9952 0.923077 12ZM0.923077 3.23077H11.0769V11.0769H0.923077V3.23077ZM9.23077 1.78125V0.295673C9.23077 0.21875 9.20793 0.15024 9.16226 0.0901442C9.11659 0.0300481 9.0625 0 9 0H8.53846C8.47596 0 8.42188 0.0300481 8.3762 0.0901442C8.33053 0.15024 8.30769 0.21875 8.30769 0.295673V1.78125C8.30769 1.86298 8.33053 1.93149 8.3762 1.98678C8.42188 2.04207 8.47596 2.07212 8.53846 2.07692H9C9.06731 2.07212 9.1226 2.04207 9.16587 1.98678C9.20914 1.93149 9.23077 1.86298 9.23077 1.78125Z" fill="#8093A5"/>
</g>
<defs>
<clipPath id="clip0_182_4032">
<rect width="12" height="12" fill="white"/>
</clipPath>
</defs>
</svg>
