<svg width="44" height="45" viewBox="0 0 44 45" fill="none" xmlns="http://www.w3.org/2000/svg">
<path fill-rule="evenodd" clip-rule="evenodd" d="M6.44548 0C6.96109 0 7.47671 0 7.99233 0C11.2616 0.612181 13.341 2.44029 14.1798 5.53729C21.1409 5.93713 29.3317 5.00432 36.0938 5.53729C40.6826 5.89869 43.175 9.22678 44 13.5355C44 14.1214 44 14.7073 44 15.2933C43.0641 21.6017 38.3887 24.0855 30.5077 23.2915C30.4766 24.9879 30.1397 26.3721 29.1327 27.071C30.1044 31.6239 24.3267 31.8015 25.1797 27.1591C23.0883 27.1591 20.9969 27.1591 18.9061 27.1591C18.9184 29.095 18.4207 30.6259 16.9293 30.6747C16.2051 30.6981 15.3091 30.1234 15.0387 29.4442C14.7426 28.6999 15.0749 27.9475 14.8668 27.1591C14.7224 26.6107 13.952 26.2043 13.7494 25.5771C13.451 24.6499 13.655 24.191 13.5775 23.2919C8.24304 22.8213 3.61255 23.6407 3.86646 28.5653C3.98608 30.88 5.7534 32.9467 8.16329 33.2237C9.53644 33.3812 11.433 33.2237 12.89 33.2237C13.7948 33.2237 16.877 32.8843 16.9293 33.8392C16.9879 34.9098 14.2779 34.5423 12.89 34.5423C11.6287 34.5423 9.51994 34.6501 8.24946 34.5423C4.22487 34.1996 0.873116 29.2642 3.43701 24.9621C5.18461 22.0296 8.40162 21.7207 13.5775 21.9738C13.5775 21.5637 13.5775 21.1535 13.5775 20.7434C6.7553 19.9071 1.77831 21.8604 1.28928 27.5978C0.904282 32.1147 4.00488 35.5318 8.16421 35.8595C15.0075 36.3985 22.7831 35.4531 29.7345 35.8595C29.7249 35.3715 29.5517 35.0504 29.5627 34.5409C26.8471 34.5409 23.8675 34.5409 20.8828 34.5409C19.9015 34.5409 18.692 34.7209 18.6485 33.9254C18.5852 32.7634 22.6057 33.2223 23.8047 33.2223C25.962 33.2223 27.662 33.2223 29.5627 33.2223C30.4683 29.5539 32.9694 26.6557 37.2112 26.8943C41.1245 27.1146 43.2511 29.8417 44 33.4867C44 33.985 44 34.4828 44 34.981C42.8831 39.5508 40.129 42.4472 37.0394 45C36.8675 45 36.6956 45 36.5237 45C33.8888 42.9483 31.7108 40.4302 30.2501 37.1781C23.2423 36.8031 14.9796 37.6773 8.16421 37.1781C3.40951 36.8293 0.856158 33.5959 0 29.1799C0 28.5939 0 28.008 0 27.4221C0.911615 21.0302 5.6984 18.6012 13.578 19.3362C13.8099 16.4825 12.8103 12.9725 15.0391 12.0411C16.5984 11.3896 19.9698 11.8653 22.0002 11.8653C23.2492 11.8653 24.3262 11.8653 25.61 11.8653C27.7023 11.8653 29.5145 11.8063 30.1649 13.1839C31.0224 15.0012 30.048 16.8861 30.4229 19.2485C35.4673 19.9367 40.4507 19.1257 40.1331 14.0628C39.9901 11.7861 38.2709 9.78599 36.0081 9.49256C34.3673 9.27975 32.3924 9.49256 30.5082 9.49256C25.3373 9.49256 19.0156 9.49256 14.1798 9.49256C13.0317 12.2028 11.4408 14.315 9.36732 16.4361C8.83428 16.9817 8.00746 18.1062 7.21868 18.1062C6.39873 18.1062 5.36611 16.7501 4.81245 16.1726C2.68856 13.9564 0.744784 11.5925 0 8.08679C0 7.58851 0 7.09071 0 6.59243C0.191581 5.67885 0.374913 4.85198 0.773659 4.0434C0.934074 3.71902 1.62432 2.20966 2.32052 2.2856C3.76929 2.4431 2.22427 4.00027 1.97677 4.48308C1.51386 5.38448 1.07478 7.21961 1.37499 8.526C2.21006 12.1588 5.38261 14.7008 7.13297 16.7C8.60145 15.5998 9.63544 14.3347 10.7423 12.8328C11.7575 11.4557 13.0023 9.80896 13.1485 7.73523C13.4382 3.64027 10.1387 1.02843 6.70306 1.31905C6.01327 1.37764 4.11396 2.40982 4.03879 1.23092C3.97279 0.183748 5.62048 0.352028 6.44548 0ZM14.4374 7.1193C14.4988 7.52055 14.3406 8.01085 14.4374 8.17398C19.6275 8.17398 25.4643 8.17398 30.6796 8.17398C33.6285 8.17398 36.4889 7.92039 38.242 8.8771C43.3739 11.6778 41.7308 20.0196 36.1795 20.6543C34.382 20.8596 32.413 20.3557 30.4216 20.8301C30.4216 21.1817 30.4216 21.5332 30.4216 21.8848C37.5701 23.0496 43.1168 20.1556 42.7107 13.8866C42.4738 10.2346 39.7893 7.17743 36.0077 6.8554C32.2375 6.53431 28.6799 6.8554 25.2654 6.8554C21.7514 6.8554 18.3354 6.8554 14.5231 6.8554C14.4236 6.8704 14.43 6.99415 14.4374 7.1193ZM22.7734 13.1839C20.3397 13.1839 17.6988 12.973 15.9842 13.1839C15.5529 13.2369 15.3265 13.467 15.0387 13.7113C14.843 15.3861 15.0066 17.4284 14.9525 19.2485C19.6504 19.2485 24.3487 19.2485 29.0466 19.2485C28.9929 17.4284 29.1561 15.3861 28.9604 13.7113C27.6592 12.8296 25.1567 13.1839 22.7734 13.1839ZM14.953 20.8301C15.3907 22.1918 14.2751 24.619 15.211 25.5761C15.6354 26.0097 17.2497 25.84 18.4766 25.84C21.3054 25.84 22.8898 25.84 25.5239 25.84C26.6972 25.84 28.3985 25.9755 28.7895 25.5761C29.6823 24.663 28.646 21.8857 29.0475 20.5662C24.378 20.5662 19.7086 20.5662 15.0396 20.5662C14.9392 20.5812 14.9456 20.7054 14.953 20.8301ZM16.4998 29.268C16.8417 29.3322 16.8454 29.3322 17.1873 29.268C17.6406 28.9403 17.3757 27.8781 17.4454 27.1586C17.0443 27.1586 16.6433 27.1586 16.2422 27.1586C16.3119 27.8781 16.047 28.9399 16.4998 29.268ZM26.8127 29.268C27.1546 29.3322 27.1578 29.3322 27.5002 29.268C27.953 28.9403 27.6881 27.8781 27.7582 27.1586C27.3572 27.1586 26.9561 27.1586 26.5551 27.1586C26.6243 27.8781 26.3594 28.9399 26.8127 29.268ZM42.7112 34.629C42.9596 31.1148 40.3824 28.4927 37.2969 28.2128C33.4259 27.8617 30.543 31.1003 30.8515 34.7167C31.192 38.7062 34.8151 41.3068 36.6952 43.5938C38.8351 41.4727 42.4376 38.4943 42.7112 34.629Z" fill="black"/>
</svg>
